#N canvas 952 0 958 966 12;
#X obj 139 166 bng 15 250 50 0 empty empty empty 17 7 0 10 -262144
-1 -1;
#X obj 139 186 openpanel;
#X obj 139 234 soundfiler;
#X floatatom 139 258 5 0 0 0 - - -;
#X obj 82 281 s end;
#X msg 139 281 range 0 \$1;
#X obj 388 221 bng 15 250 50 0 empty empty empty 17 7 0 10 -262144
-1 -1;
#X obj 388 241 f;
#X obj 388 265 pack f f f;
#X obj 222 302 hsl 128 15 0 43643 0 0 empty empty empty -2 -8 0 10
-262144 -1 -1 0 1;
#N canvas 0 50 450 250 (subpatch) 0;
#X array audioData 43643 float 2;
#X coords 0 1 43643 -1 200 140 1;
#X restore 222 36 graph;
#X msg 139 209 read -resize \$1 audioData;
#X obj 515 172 r end;
#X obj 421 237 r end;
#X obj 388 313 vline~;
#X obj 388 337 tabread4~ audioData;
#X obj 388 361 *~;
#X obj 386 433 dac~;
#X floatatom 452 362 5 0 0 0 - - -;
#X obj 406 179 r start;
#X msg 388 289 \$1 \, \$2 \$3;
#X floatatom 449 474 5 0 0 0 - - -;
#X obj 386 395 lop~;
#X obj 480 269 / 1;
#X obj 219 322 s start;
#X obj 461 208 expr abs($f2 - $f1) / 44.1;
#X floatatom 483 231 5 0 0 0 - - -;
#X floatatom 527 238 5 0 0 0 - - -;
#X msg 514 308 \$1 100;
#X obj 519 280 r start;
#X obj 584 282 r end;
#X msg 342 221 stop;
#X obj 215 360 hsl 128 15 0 43643 0 0 empty empty empty -2 -8 0 10
-262144 -1 -1 25500 1;
#X obj 212 380 s end;
#X connect 0 0 1 0;
#X connect 1 0 11 0;
#X connect 2 0 3 0;
#X connect 3 0 4 0;
#X connect 3 0 5 0;
#X connect 5 0 9 0;
#X connect 5 0 32 0;
#X connect 6 0 7 0;
#X connect 7 0 8 0;
#X connect 8 0 20 0;
#X connect 9 0 24 0;
#X connect 11 0 2 0;
#X connect 12 0 25 1;
#X connect 13 0 8 1;
#X connect 14 0 15 0;
#X connect 15 0 16 0;
#X connect 16 0 22 0;
#X connect 18 0 16 1;
#X connect 19 0 7 1;
#X connect 19 0 25 0;
#X connect 20 0 14 0;
#X connect 21 0 22 1;
#X connect 22 0 17 0;
#X connect 22 0 17 1;
#X connect 23 0 8 2;
#X connect 25 0 26 0;
#X connect 26 0 23 0;
#X connect 27 0 23 1;
#X connect 28 0 14 0;
#X connect 29 0 28 0;
#X connect 30 0 28 0;
#X connect 31 0 14 0;
#X connect 32 0 33 0;
